<svg width="1600" height="900" viewBox="0 0 1600 900" fill="none" xmlns="http://www.w3.org/2000/svg">
<rect opacity="0.4" x="224" y="42" width="48" height="48" stroke="#FF4D13" stroke-width="1.4"/>
<rect opacity="0.4" x="272" y="42" width="48" height="48" stroke="#FF4D13" stroke-width="1.4"/>
<rect opacity="0.4" x="320" y="42" width="48" height="48" stroke="#FF4D13" stroke-width="1.4"/>
<rect opacity="0.4" x="368" y="42" width="48" height="48" stroke="#FF4D13" stroke-width="1.4"/>
<rect opacity="0.4" x="416" y="42" width="48" height="48" stroke="#FF4D13" stroke-width="1.4"/>
<rect opacity="0.4" x="464" y="42" width="48" height="48" stroke="#FF4D13" stroke-width="1.4"/>
<rect opacity="0.4" x="512" y="42" width="48" height="48" stroke="#FF4D13" stroke-width="1.4"/>
<rect opacity="0.4" x="560" y="42" width="48" height="48" stroke="#FF4D13" stroke-width="1.4"/>
<rect opacity="0.4" x="992" y="42" width="48" height="48" stroke="#FF4D13" stroke-width="1.4"/>
<rect opacity="0.4" x="1040" y="42" width="48" height="48" stroke="#FF4D13" stroke-width="1.4"/>
<rect opacity="0.4" x="1088" y="42" width="48" height="48" stroke="#FF4D13" stroke-width="1.4"/>
<rect opacity="0.4" x="1184" y="42" width="48" height="48" stroke="#FF4D13" stroke-width="1.4"/>
<rect opacity="0.4" x="1232" y="42" width="48" height="48" stroke="#FF4D13" stroke-width="1.4"/>
<rect opacity="0.4" x="1280" y="42" width="48" height="48" stroke="#FF4D13" stroke-width="1.4"/>
<rect opacity="0.4" x="1328" y="42" width="48" height="48" stroke="#FF4D13" stroke-width="1.4"/>
<rect opacity="0.4" x="1472" y="42" width="48" height="48" stroke="#FF4D13" stroke-width="1.4"/>
<rect opacity="0.4" x="80" y="186" width="48" height="48" stroke="#FF4D13" stroke-width="1.4"/>
<rect opacity="0.4" x="80" y="234" width="48" height="48" stroke="#FF4D13" stroke-width="1.4"/>
<rect opacity="0.4" x="80" y="282" width="48" height="48" stroke="#FF4D13" stroke-width="1.4"/>
<rect opacity="0.4" x="80" y="330" width="48" height="48" stroke="#FF4D13" stroke-width="1.4"/>
<rect opacity="0.4" x="80" y="378" width="48" height="48" stroke="#FF4D13" stroke-width="1.4"/>
<rect opacity="0.4" x="80" y="570" width="48" height="48" stroke="#FF4D13" stroke-width="1.4"/>
<rect opacity="0.4" x="80" y="618" width="48" height="48" stroke="#FF4D13" stroke-width="1.4"/>
<rect opacity="0.4" x="80" y="666" width="48" height="48" stroke="#FF4D13" stroke-width="1.4"/>
<rect opacity="0.4" x="80" y="714" width="48" height="48" stroke="#FF4D13" stroke-width="1.4"/>
<rect opacity="0.4" x="128" y="186" width="48" height="48" stroke="#FF4D13" stroke-width="1.4"/>
<rect opacity="0.4" x="128" y="234" width="48" height="48" stroke="#FF4D13" stroke-width="1.4"/>
<rect opacity="0.4" x="128" y="282" width="48" height="48" stroke="#FF4D13" stroke-width="1.4"/>
<rect opacity="0.4" x="128" y="378" width="48" height="48" stroke="#FF4D13" stroke-width="1.4"/>
<rect opacity="0.4" x="128" y="426" width="48" height="48" stroke="#FF4D13" stroke-width="1.4"/>
<rect opacity="0.4" x="128" y="570" width="48" height="48" stroke="#FF4D13" stroke-width="1.4"/>
<rect opacity="0.4" x="128" y="618" width="48" height="48" stroke="#FF4D13" stroke-width="1.4"/>
<rect opacity="0.4" x="128" y="666" width="48" height="48" stroke="#FF4D13" stroke-width="1.4"/>
<rect opacity="0.4" x="128" y="714" width="48" height="48" stroke="#FF4D13" stroke-width="1.4"/>
<rect opacity="0.4" x="176" y="186" width="48" height="48" stroke="#FF4D13" stroke-width="1.4"/>
<rect opacity="0.4" x="176" y="234" width="48" height="48" stroke="#FF4D13" stroke-width="1.4"/>
<rect opacity="0.4" x="176" y="282" width="48" height="48" stroke="#FF4D13" stroke-width="1.4"/>
<rect opacity="0.4" x="176" y="378" width="48" height="48" stroke="#FF4D13" stroke-width="1.4"/>
<rect opacity="0.4" x="176" y="426" width="48" height="48" stroke="#FF4D13" stroke-width="1.4"/>
<rect opacity="0.4" x="176" y="666" width="48" height="48" stroke="#FF4D13" stroke-width="1.4"/>
<rect opacity="0.4" x="176" y="714" width="48" height="48" stroke="#FF4D13" stroke-width="1.4"/>
<rect opacity="0.4" x="224" y="90" width="48" height="48" stroke="#FF4D13" stroke-width="1.4"/>
<rect opacity="0.4" x="224" y="138" width="48" height="48" stroke="#FF4D13" stroke-width="1.4"/>
<rect opacity="0.4" x="224" y="186" width="48" height="48" stroke="#FF4D13" stroke-width="1.4"/>
<rect opacity="0.4" x="224" y="378" width="48" height="48" stroke="#FF4D13" stroke-width="1.4"/>
<rect opacity="0.4" x="224" y="426" width="48" height="48" stroke="#FF4D13" stroke-width="1.4"/>
<rect opacity="0.4" x="224" y="666" width="48" height="48" stroke="#FF4D13" stroke-width="1.4"/>
<rect opacity="0.4" x="224" y="714" width="48" height="48" stroke="#FF4D13" stroke-width="1.4"/>
<rect opacity="0.4" x="272" y="90" width="48" height="48" stroke="#FF4D13" stroke-width="1.4"/>
<rect opacity="0.4" x="272" y="138" width="48" height="48" stroke="#FF4D13" stroke-width="1.4"/>
<rect opacity="0.4" x="272" y="186" width="48" height="48" stroke="#FF4D13" stroke-width="1.4"/>
<rect opacity="0.4" x="272" y="378" width="48" height="48" stroke="#FF4D13" stroke-width="1.4"/>
<rect opacity="0.4" x="272" y="426" width="48" height="48" stroke="#FF4D13" stroke-width="1.4"/>
<rect opacity="0.4" x="272" y="474" width="48" height="48" stroke="#FF4D13" stroke-width="1.4"/>
<rect opacity="0.4" x="272" y="522" width="48" height="48" stroke="#FF4D13" stroke-width="1.4"/>
<rect opacity="0.4" x="272" y="570" width="48" height="48" stroke="#FF4D13" stroke-width="1.4"/>
<rect opacity="0.4" x="272" y="618" width="48" height="48" stroke="#FF4D13" stroke-width="1.4"/>
<rect opacity="0.4" x="272" y="666" width="48" height="48" stroke="#FF4D13" stroke-width="1.4"/>
<rect opacity="0.4" x="272" y="714" width="48" height="48" stroke="#FF4D13" stroke-width="1.4"/>
<rect opacity="0.4" x="320" y="90" width="48" height="48" stroke="#FF4D13" stroke-width="1.4"/>
<rect opacity="0.4" x="320" y="138" width="48" height="48" stroke="#FF4D13" stroke-width="1.4"/>
<rect opacity="0.4" x="320" y="186" width="48" height="48" stroke="#FF4D13" stroke-width="1.4"/>
<rect opacity="0.4" x="320" y="378" width="48" height="48" stroke="#FF4D13" stroke-width="1.4"/>
<rect opacity="0.4" x="320" y="426" width="48" height="48" stroke="#FF4D13" stroke-width="1.4"/>
<rect opacity="0.4" x="320" y="474" width="48" height="48" stroke="#FF4D13" stroke-width="1.4"/>
<rect opacity="0.4" x="320" y="522" width="48" height="48" stroke="#FF4D13" stroke-width="1.4"/>
<rect opacity="0.4" x="320" y="570" width="48" height="48" stroke="#FF4D13" stroke-width="1.4"/>
<rect opacity="0.4" x="320" y="618" width="48" height="48" stroke="#FF4D13" stroke-width="1.4"/>
<rect opacity="0.4" x="368" y="90" width="48" height="48" stroke="#FF4D13" stroke-width="1.4"/>
<rect opacity="0.4" x="368" y="138" width="48" height="48" stroke="#FF4D13" stroke-width="1.4"/>
<rect opacity="0.4" x="368" y="522" width="48" height="48" stroke="#FF4D13" stroke-width="1.4"/>
<rect opacity="0.4" x="368" y="618" width="48" height="48" stroke="#FF4D13" stroke-width="1.4"/>
<rect opacity="0.4" x="416" y="90" width="48" height="48" stroke="#FF4D13" stroke-width="1.4"/>
<rect opacity="0.4" x="416" y="138" width="48" height="48" stroke="#FF4D13" stroke-width="1.4"/>
<rect opacity="0.4" x="416" y="522" width="48" height="48" stroke="#FF4D13" stroke-width="1.4"/>
<rect opacity="0.4" x="416" y="618" width="48" height="48" stroke="#FF4D13" stroke-width="1.4"/>
<rect opacity="0.4" x="416" y="666" width="48" height="48" stroke="#FF4D13" stroke-width="1.4"/>
<rect opacity="0.4" x="464" y="90" width="48" height="48" stroke="#FF4D13" stroke-width="1.4"/>
<rect opacity="0.4" x="464" y="138" width="48" height="48" stroke="#FF4D13" stroke-width="1.4"/>
<rect opacity="0.4" x="464" y="618" width="48" height="48" stroke="#FF4D13" stroke-width="1.4"/>
<rect opacity="0.4" x="464" y="666" width="48" height="48" stroke="#FF4D13" stroke-width="1.4"/>
<rect opacity="0.4" x="512" y="90" width="48" height="48" stroke="#FF4D13" stroke-width="1.4"/>
<rect opacity="0.4" x="512" y="138" width="48" height="48" stroke="#FF4D13" stroke-width="1.4"/>
<rect opacity="0.4" x="560" y="90" width="48" height="48" stroke="#FF4D13" stroke-width="1.4"/>
<rect opacity="0.4" x="560" y="138" width="48" height="48" stroke="#FF4D13" stroke-width="1.4"/>
<rect opacity="0.4" x="560" y="714" width="48" height="48" stroke="#FF4D13" stroke-width="1.4"/>
<rect opacity="0.4" x="512" y="714" width="48" height="48" stroke="#FF4D13" stroke-width="1.4"/>
<rect opacity="0.4" x="608" y="90" width="48" height="48" stroke="#FF4D13" stroke-width="1.4"/>
<rect opacity="0.4" x="608" y="138" width="48" height="48" stroke="#FF4D13" stroke-width="1.4"/>
<rect opacity="0.4" x="656" y="90" width="48" height="48" stroke="#FF4D13" stroke-width="1.4"/>
<rect opacity="0.4" x="656" y="138" width="48" height="48" stroke="#FF4D13" stroke-width="1.4"/>
<rect opacity="0.4" x="704" y="90" width="48" height="48" stroke="#FF4D13" stroke-width="1.4"/>
<rect opacity="0.4" x="704" y="138" width="48" height="48" stroke="#FF4D13" stroke-width="1.4"/>
<rect opacity="0.4" x="752" y="90" width="48" height="48" stroke="#FF4D13" stroke-width="1.4"/>
<rect opacity="0.4" x="752" y="138" width="48" height="48" stroke="#FF4D13" stroke-width="1.4"/>
<rect opacity="0.4" x="800" y="90" width="48" height="48" stroke="#FF4D13" stroke-width="1.4"/>
<rect opacity="0.4" x="800" y="138" width="48" height="48" stroke="#FF4D13" stroke-width="1.4"/>
<rect opacity="0.4" x="848" y="90" width="48" height="48" stroke="#FF4D13" stroke-width="1.4"/>
<rect opacity="0.4" x="848" y="138" width="48" height="48" stroke="#FF4D13" stroke-width="1.4"/>
<rect opacity="0.4" x="896" y="90" width="48" height="48" stroke="#FF4D13" stroke-width="1.4"/>
<rect opacity="0.4" x="896" y="138" width="48" height="48" stroke="#FF4D13" stroke-width="1.4"/>
<rect opacity="0.4" x="944" y="90" width="48" height="48" stroke="#FF4D13" stroke-width="1.4"/>
<rect opacity="0.4" x="944" y="618" width="48" height="48" stroke="#FF4D13" stroke-width="1.4"/>
<rect opacity="0.4" x="944" y="666" width="48" height="48" stroke="#FF4D13" stroke-width="1.4"/>
<rect opacity="0.4" x="944" y="714" width="48" height="48" stroke="#FF4D13" stroke-width="1.4"/>
<rect opacity="0.4" x="992" y="90" width="48" height="48" stroke="#FF4D13" stroke-width="1.4"/>
<rect opacity="0.4" x="992" y="618" width="48" height="48" stroke="#FF4D13" stroke-width="1.4"/>
<rect opacity="0.4" x="992" y="666" width="48" height="48" stroke="#FF4D13" stroke-width="1.4"/>
<rect opacity="0.4" x="992" y="714" width="48" height="48" stroke="#FF4D13" stroke-width="1.4"/>
<rect opacity="0.4" x="1040" y="90" width="48" height="48" stroke="#FF4D13" stroke-width="1.4"/>
<rect opacity="0.4" x="1040" y="618" width="48" height="48" stroke="#FF4D13" stroke-width="1.4"/>
<rect opacity="0.4" x="1040" y="666" width="48" height="48" stroke="#FF4D13" stroke-width="1.4"/>
<rect opacity="0.4" x="1040" y="714" width="48" height="48" stroke="#FF4D13" stroke-width="1.4"/>
<rect opacity="0.4" x="1088" y="90" width="48" height="48" stroke="#FF4D13" stroke-width="1.4"/>
<rect opacity="0.4" x="1088" y="618" width="48" height="48" stroke="#FF4D13" stroke-width="1.4"/>
<rect opacity="0.4" x="1088" y="666" width="48" height="48" stroke="#FF4D13" stroke-width="1.4"/>
<rect opacity="0.4" x="1088" y="714" width="48" height="48" stroke="#FF4D13" stroke-width="1.4"/>
<rect opacity="0.4" x="1136" y="618" width="48" height="48" stroke="#FF4D13" stroke-width="1.4"/>
<rect opacity="0.4" x="1136" y="714" width="48" height="48" stroke="#FF4D13" stroke-width="1.4"/>
<rect opacity="0.4" x="1184" y="90" width="48" height="48" stroke="#FF4D13" stroke-width="1.4"/>
<rect opacity="0.4" x="1184" y="618" width="48" height="48" stroke="#FF4D13" stroke-width="1.4"/>
<rect opacity="0.4" x="1184" y="666" width="48" height="48" stroke="#FF4D13" stroke-width="1.4"/>
<rect opacity="0.4" x="1184" y="714" width="48" height="48" stroke="#FF4D13" stroke-width="1.4"/>
<rect opacity="0.4" x="1232" y="90" width="48" height="48" stroke="#FF4D13" stroke-width="1.4"/>
<rect opacity="0.4" x="1232" y="186" width="48" height="48" stroke="#FF4D13" stroke-width="1.4"/>
<rect opacity="0.4" x="1232" y="234" width="48" height="48" stroke="#FF4D13" stroke-width="1.4"/>
<rect opacity="0.4" x="1232" y="282" width="48" height="48" stroke="#FF4D13" stroke-width="1.4"/>
<rect opacity="0.4" x="1232" y="330" width="48" height="48" stroke="#FF4D13" stroke-width="1.4"/>
<rect opacity="0.4" x="1232" y="378" width="48" height="48" stroke="#FF4D13" stroke-width="1.4"/>
<rect opacity="0.4" x="1232" y="426" width="48" height="48" stroke="#FF4D13" stroke-width="1.4"/>
<rect opacity="0.4" x="1232" y="474" width="48" height="48" stroke="#FF4D13" stroke-width="1.4"/>
<rect opacity="0.4" x="1232" y="618" width="48" height="48" stroke="#FF4D13" stroke-width="1.4"/>
<rect opacity="0.4" x="1232" y="666" width="48" height="48" stroke="#FF4D13" stroke-width="1.4"/>
<rect opacity="0.4" x="1232" y="714" width="48" height="48" stroke="#FF4D13" stroke-width="1.4"/>
<rect opacity="0.4" x="1280" y="90" width="48" height="48" stroke="#FF4D13" stroke-width="1.4"/>
<rect opacity="0.4" x="1280" y="138" width="48" height="48" stroke="#FF4D13" stroke-width="1.4"/>
<rect opacity="0.4" x="1280" y="186" width="48" height="48" stroke="#FF4D13" stroke-width="1.4"/>
<rect opacity="0.4" x="1280" y="234" width="48" height="48" stroke="#FF4D13" stroke-width="1.4"/>
<rect opacity="0.4" x="1280" y="282" width="48" height="48" stroke="#FF4D13" stroke-width="1.4"/>
<rect opacity="0.4" x="1280" y="330" width="48" height="48" stroke="#FF4D13" stroke-width="1.4"/>
<rect opacity="0.4" x="1280" y="378" width="48" height="48" stroke="#FF4D13" stroke-width="1.4"/>
<rect opacity="0.4" x="1280" y="426" width="48" height="48" stroke="#FF4D13" stroke-width="1.4"/>
<rect opacity="0.4" x="1280" y="474" width="48" height="48" stroke="#FF4D13" stroke-width="1.4"/>
<rect opacity="0.4" x="1280" y="618" width="48" height="48" stroke="#FF4D13" stroke-width="1.4"/>
<rect opacity="0.4" x="1280" y="666" width="48" height="48" stroke="#FF4D13" stroke-width="1.4"/>
<rect opacity="0.4" x="1280" y="714" width="48" height="48" stroke="#FF4D13" stroke-width="1.4"/>
<rect opacity="0.4" x="1328" y="90" width="48" height="48" stroke="#FF4D13" stroke-width="1.4"/>
<rect opacity="0.4" x="1328" y="138" width="48" height="48" stroke="#FF4D13" stroke-width="1.4"/>
<rect opacity="0.4" x="1328" y="186" width="48" height="48" stroke="#FF4D13" stroke-width="1.4"/>
<rect opacity="0.4" x="1328" y="234" width="48" height="48" stroke="#FF4D13" stroke-width="1.4"/>
<rect opacity="0.4" x="1328" y="282" width="48" height="48" stroke="#FF4D13" stroke-width="1.4"/>
<rect opacity="0.4" x="1328" y="330" width="48" height="48" stroke="#FF4D13" stroke-width="1.4"/>
<rect opacity="0.4" x="1328" y="378" width="48" height="48" stroke="#FF4D13" stroke-width="1.4"/>
<rect opacity="0.4" x="1328" y="426" width="48" height="48" stroke="#FF4D13" stroke-width="1.4"/>
<rect opacity="0.4" x="1328" y="474" width="48" height="48" stroke="#FF4D13" stroke-width="1.4"/>
<rect opacity="0.4" x="1328" y="522" width="48" height="48" stroke="#FF4D13" stroke-width="1.4"/>
<rect opacity="0.4" x="1328" y="570" width="48" height="48" stroke="#FF4D13" stroke-width="1.4"/>
<rect opacity="0.4" x="1328" y="618" width="48" height="48" stroke="#FF4D13" stroke-width="1.4"/>
<rect opacity="0.4" x="1328" y="666" width="48" height="48" stroke="#FF4D13" stroke-width="1.4"/>
<rect opacity="0.4" x="1328" y="714" width="48" height="48" stroke="#FF4D13" stroke-width="1.4"/>
<rect opacity="0.4" x="1376" y="282" width="48" height="48" stroke="#FF4D13" stroke-width="1.4"/>
<rect opacity="0.4" x="1376" y="522" width="48" height="48" stroke="#FF4D13" stroke-width="1.4"/>
<rect opacity="0.4" x="1376" y="570" width="48" height="48" stroke="#FF4D13" stroke-width="1.4"/>
<rect opacity="0.4" x="1376" y="618" width="48" height="48" stroke="#FF4D13" stroke-width="1.4"/>
<rect opacity="0.4" x="1376" y="666" width="48" height="48" stroke="#FF4D13" stroke-width="1.4"/>
<rect opacity="0.4" x="1376" y="714" width="48" height="48" stroke="#FF4D13" stroke-width="1.4"/>
<rect opacity="0.4" x="1424" y="282" width="48" height="48" stroke="#FF4D13" stroke-width="1.4"/>
<rect opacity="0.4" x="1424" y="378" width="48" height="48" stroke="#FF4D13" stroke-width="1.4"/>
<rect opacity="0.4" x="1424" y="522" width="48" height="48" stroke="#FF4D13" stroke-width="1.4"/>
<rect opacity="0.4" x="1424" y="570" width="48" height="48" stroke="#FF4D13" stroke-width="1.4"/>
<rect opacity="0.4" x="1424" y="618" width="48" height="48" stroke="#FF4D13" stroke-width="1.4"/>
<rect opacity="0.4" x="1424" y="666" width="48" height="48" stroke="#FF4D13" stroke-width="1.4"/>
<rect opacity="0.4" x="1424" y="714" width="48" height="48" stroke="#FF4D13" stroke-width="1.4"/>
<rect opacity="0.4" x="1472" y="90" width="48" height="48" stroke="#FF4D13" stroke-width="1.4"/>
<rect opacity="0.4" x="1472" y="138" width="48" height="48" stroke="#FF4D13" stroke-width="1.4"/>
<rect opacity="0.4" x="1472" y="186" width="48" height="48" stroke="#FF4D13" stroke-width="1.4"/>
<rect opacity="0.4" x="1472" y="234" width="48" height="48" stroke="#FF4D13" stroke-width="1.4"/>
<rect opacity="0.4" x="1472" y="282" width="48" height="48" stroke="#FF4D13" stroke-width="1.4"/>
<rect opacity="0.4" x="1472" y="378" width="48" height="48" stroke="#FF4D13" stroke-width="1.4"/>
<rect opacity="0.4" x="1472" y="570" width="48" height="48" stroke="#FF4D13" stroke-width="1.4"/>
<rect opacity="0.4" x="1472" y="618" width="48" height="48" stroke="#FF4D13" stroke-width="1.4"/>
<rect opacity="0.4" x="1472" y="666" width="48" height="48" stroke="#FF4D13" stroke-width="1.4"/>
<rect opacity="0.4" x="1472" y="714" width="48" height="48" stroke="#FF4D13" stroke-width="1.4"/>
<path d="M1280 252C1280 278.842 1276.84 282 1250 282C1276.84 282 1280 285.158 1280 312C1280 285.158 1283.16 282 1310 282C1283.16 282 1280 278.842 1280 252Z" fill="#FF4D13"/>
<path d="M1136 636C1136 662.842 1132.84 666 1106 666C1132.84 666 1136 669.158 1136 696C1136 669.158 1139.16 666 1166 666C1139.16 666 1136 662.842 1136 636Z" fill="#FF4D13"/>
<path d="M1328 444C1328 470.842 1324.84 474 1298 474C1324.84 474 1328 477.158 1328 504C1328 477.158 1331.16 474 1358 474C1331.16 474 1328 470.842 1328 444Z" fill="#FF4D13"/>
<path d="M320 492C320 518.842 316.842 522 290 522C316.842 522 320 525.158 320 552C320 525.158 323.158 522 350 522C323.158 522 320 518.842 320 492Z" fill="#FF4D13"/>
<path d="M224 684C224 710.842 220.842 714 194 714C220.842 714 224 717.158 224 744C224 717.158 227.158 714 254 714C227.158 714 224 710.842 224 684Z" fill="#FF4D13"/>
<path d="M512 108C512 134.842 508.842 138 482 138C508.842 138 512 141.158 512 168C512 141.158 515.158 138 542 138C515.158 138 512 134.842 512 108Z" fill="#FF4D13"/>
<path d="M1040 60C1040 86.8421 1036.84 90 1010 90C1036.84 90 1040 93.1579 1040 120C1040 93.1579 1043.16 90 1070 90C1043.16 90 1040 86.8421 1040 60Z" fill="#FF4D13"/>
<rect x="573.75" y="364.75" width="483.65" height="102.455" fill="#FF4D13"/>
<path d="M1012.42 397.044H1023.95C1025.49 397.044 1026.75 398.342 1026.75 399.927V434.134C1026.75 435.72 1028 437.017 1029.55 437.017C1031.09 437.017 1032.35 435.72 1032.35 434.134V394.81C1032.35 392.864 1030.81 391.278 1028.92 391.278H995.662C994.121 391.278 992.86 392.576 992.86 394.161V434.134C992.86 435.72 994.121 437.017 995.662 437.017H1006.81C1008.35 437.017 1009.62 435.72 1009.62 434.134V399.927C1009.62 398.342 1010.86 397.044 1012.42 397.044Z" fill="white"/>
<path d="M948.017 391.278C944.742 391.278 942.084 393.83 942.084 396.987V431.309C942.084 434.451 944.742 437.017 948.017 437.017H978.464C981.739 437.017 984.397 434.466 984.397 431.309V397.044C984.397 393.902 981.754 391.35 978.479 391.336L960.033 391.278H948.017ZM978.404 402.738V425.543C978.404 428.685 975.745 431.251 972.456 431.251H965.982C962.707 431.251 960.033 428.7 960.033 425.543V402.738C960.033 399.596 962.692 397.03 965.982 397.03H972.456C975.73 397.03 978.404 399.581 978.404 402.738Z" fill="white"/>
<path d="M848.975 391.278C847.434 391.278 846.172 392.576 846.172 394.161C846.172 395.747 847.42 397.044 848.975 397.044H854.735C856.277 397.044 857.538 398.342 857.538 399.927V434.134C857.538 435.72 858.799 437.017 860.341 437.017H871.497C873.038 437.017 874.3 435.72 874.3 434.134V399.927C874.3 398.342 875.561 397.044 877.102 397.044H882.862C884.404 397.044 885.665 395.761 885.665 394.161C885.665 392.576 884.404 391.278 882.862 391.278H848.975Z" fill="white"/>
<path d="M781.465 419.878H767.666C766.405 419.878 765.384 418.898 765.384 417.687V393.469C765.384 392.259 764.363 391.278 763.101 391.278H750.548C748.822 391.278 747.44 392.619 747.44 394.262V434.019C747.44 435.677 748.837 437.017 750.548 437.017H763.101C764.363 437.017 765.384 436.037 765.384 434.826V427.849C765.384 426.638 766.405 425.658 767.666 425.658H775.549C776.405 425.658 777.201 426.12 777.591 426.855L782.321 435.821C782.712 436.556 783.493 437.017 784.363 437.017H786.045C787.742 437.017 788.853 435.287 788.087 433.832L783.763 425.644H787.472C788.733 425.644 789.754 424.664 789.754 423.453V393.469C789.754 392.259 788.733 391.278 787.472 391.278H786.03C784.769 391.278 783.748 392.259 783.748 393.469V417.687C783.748 418.898 782.727 419.878 781.465 419.878Z" fill="white"/>
<path d="M702.009 391.278C700.617 391.278 699.485 392.533 699.485 394.076V434.22C699.485 435.763 700.617 437.017 702.009 437.017H733.632C735.024 437.017 736.157 435.763 736.157 434.22V428.452C736.157 426.909 735.024 425.655 733.632 425.655H733.489C732.096 425.655 730.964 426.909 730.964 428.452C730.964 429.995 729.832 431.249 728.44 431.249H717.586C716.194 431.249 715.062 429.995 715.062 428.452V399.844C715.062 398.301 716.194 397.046 717.586 397.046H728.44C729.832 397.046 730.964 398.301 730.964 399.844V417.089C730.964 418.632 732.096 419.887 733.489 419.887H733.632C735.024 419.887 736.157 418.632 736.157 417.089V397.046C736.157 393.859 733.827 391.278 730.951 391.278H702.009Z" fill="white"/>
<path d="M648.889 391.278C647.238 391.278 645.887 392.576 645.887 394.161V434.134C645.887 435.72 647.238 437.017 648.889 437.017H660.837C662.489 437.017 663.839 435.734 663.839 434.134V428.541C663.839 426.956 665.19 425.658 666.841 425.658H679.195C680.846 425.658 682.197 426.941 682.197 428.541V434.134C682.197 435.72 683.548 437.017 685.199 437.017C686.85 437.017 688.201 435.734 688.201 434.134V394.161C688.201 392.576 686.85 391.278 685.199 391.278H648.889ZM679.195 419.878H666.841C665.19 419.878 663.839 418.58 663.839 416.995V399.927C663.839 398.342 665.19 397.044 666.841 397.044H679.195C680.846 397.044 682.197 398.327 682.197 399.927V417.009C682.197 418.595 680.846 419.892 679.195 419.892V419.878Z" fill="white"/>
<path d="M801.019 391.278C799.478 391.278 798.217 392.576 798.217 394.161V434.134C798.217 435.72 799.478 437.017 801.019 437.017H812.17C813.711 437.017 814.972 435.734 814.972 434.134V428.541C814.972 426.956 816.233 425.658 817.774 425.658H829.304C830.845 425.658 832.106 426.941 832.106 428.541V434.134C832.106 435.72 833.367 437.017 834.908 437.017C836.449 437.017 837.71 435.734 837.71 434.134V394.161C837.71 392.576 836.449 391.278 834.908 391.278H801.019ZM829.304 419.878H817.774C816.233 419.878 814.972 418.58 814.972 416.995V399.927C814.972 398.342 816.233 397.044 817.774 397.044H829.304C830.845 397.044 832.106 398.327 832.106 399.927V417.009C832.106 418.595 830.845 419.892 829.304 419.892V419.878Z" fill="white"/>
<path d="M629.081 419.878H617.419C615.921 419.878 614.689 418.624 614.689 417.067V394.089C614.689 392.547 613.471 391.278 611.959 391.278H600.662C599.164 391.278 597.932 392.532 597.932 394.089V434.206C597.932 435.749 599.15 437.017 600.662 437.017H611.959C613.457 437.017 614.689 435.763 614.689 434.206V428.455C614.689 426.912 615.907 425.644 617.419 425.644H629.081C630.579 425.644 631.811 426.898 631.811 428.455V434.206C631.811 435.749 633.029 437.017 634.541 437.017H634.695C636.193 437.017 637.424 435.763 637.424 434.206V394.089C637.424 392.547 636.207 391.278 634.695 391.278H634.541C633.043 391.278 631.811 392.532 631.811 394.089V417.081C631.811 418.624 630.593 419.892 629.081 419.892V419.878Z" fill="white"/>
<path d="M923.052 419.878H912.223C910.833 419.878 909.689 418.624 909.689 417.067V394.089C909.689 392.547 908.558 391.278 907.154 391.278H896.663C895.272 391.278 894.128 392.532 894.128 394.089V434.206C894.128 435.749 895.259 437.017 896.663 437.017H907.154C908.545 437.017 909.689 435.763 909.689 434.206V428.455C909.689 426.912 910.82 425.644 912.223 425.644H923.052C924.443 425.644 925.587 426.898 925.587 428.455V434.206C925.587 435.749 926.718 437.017 928.122 437.017H928.265C929.656 437.017 930.8 435.763 930.8 434.206V394.089C930.8 392.547 929.669 391.278 928.265 391.278H928.122C926.731 391.278 925.587 392.532 925.587 394.089V417.081C925.587 418.624 924.456 419.892 923.052 419.892V419.878Z" fill="white"/>
<path d="M590.379 346.045C583.357 346.045 577.546 344.621 572.949 341.762C568.374 338.88 565 335.154 562.838 330.598C560.699 326.018 559.773 321.165 560.047 316.062C560.344 310.935 561.831 306.082 564.485 301.526C567.138 296.946 570.947 293.221 575.922 290.362C580.921 287.48 587.04 286.033 594.268 286.033H620.758V269.993C620.963 262.885 619.763 257.177 617.143 252.86C614.547 248.52 611.104 245.227 606.804 242.972L605.66 244.658C607.216 246.241 608.462 248.189 609.412 250.49C610.384 252.803 610.876 255.526 610.876 258.647C610.784 263.056 609.778 266.701 607.856 269.583C605.935 272.442 603.43 274.664 600.353 276.236C597.299 277.819 594.085 278.959 590.7 279.653C587.314 280.326 584.112 280.724 581.092 280.838C578.095 280.929 575.648 280.929 573.726 280.838C571.805 280.724 570.844 280.656 570.844 280.656L571.027 236.182H615.817C630.64 236.182 642.26 239.964 650.678 247.529C659.119 255.07 663.351 266.211 663.351 280.975V346.045H590.379ZM621.078 290.954C616.228 292.754 612.259 295.853 609.183 300.25C606.129 304.659 604.562 309.671 604.471 315.287C604.471 317.326 604.745 319.696 605.294 322.396C605.866 325.107 606.758 327.75 607.948 330.324C609.137 332.91 610.693 335.086 612.614 336.84C614.536 338.572 616.846 339.438 619.568 339.438C622.153 339.438 624.383 338.515 626.248 336.658C628.101 334.813 629.038 332.591 629.038 330.005C629.038 327.636 628.272 325.585 626.751 323.854C625.218 322.099 623.331 320.983 621.078 320.527V290.954Z" fill="black"/>
<path d="M716.441 299.384C709.876 299.84 704.501 301.97 700.292 305.763C696.105 309.534 694.081 314.911 694.207 321.894C694.207 326.611 695.602 330.962 698.416 334.972C701.252 338.982 706.468 341.488 714.062 342.491L714.749 340.622C711.912 339.05 709.499 336.795 707.52 333.878C705.53 330.962 704.478 327.18 704.363 322.532C704.272 317.702 705.233 313.806 707.246 310.821C709.282 307.814 711.924 305.558 715.16 304.032C718.386 302.517 721.748 301.48 725.225 300.933C728.725 300.364 732.008 300.045 735.062 299.976C738.138 299.919 740.472 299.885 742.062 299.885V345.863H673.482V236H716.441V299.384Z" fill="black"/>
<path d="M841.142 283.663C841.142 283.663 839.861 283.754 837.299 283.937C834.76 284.119 831.626 284.017 827.875 283.618C824.146 283.23 820.418 282.274 816.666 280.747C812.937 279.198 809.804 276.805 807.242 273.547C804.702 270.267 803.399 265.755 803.307 260.014C803.181 255.731 803.948 252.165 805.595 249.306C807.242 246.424 809.3 244.088 811.771 242.288L810.947 240.42C805.389 241.331 800.905 243.769 797.497 247.711C794.111 251.63 792.304 256.072 792.098 261.016C791.881 265.3 792.75 269.56 794.706 273.775C796.685 278.002 799.704 281.499 803.765 284.256C807.848 287.024 812.789 288.528 818.588 288.767V292.139C813.944 292.264 809.586 293.21 805.503 294.964C801.408 296.696 798.103 299.179 795.575 302.391C793.036 305.581 791.709 309.546 791.595 314.285C791.595 318.238 792.384 322.122 793.974 325.95C795.552 329.777 797.817 333.104 800.745 335.929C803.696 338.731 807.15 340.577 811.085 341.488L811.954 339.62C809.449 337.831 807.379 335.508 805.732 332.648C804.108 329.766 803.307 326.178 803.307 321.894C803.181 316.7 804.142 312.553 806.189 309.454C808.225 306.356 810.856 303.986 814.058 302.346C817.284 300.706 820.692 299.589 824.261 298.974C827.829 298.37 831.135 298.04 834.188 297.971C837.231 297.915 839.61 297.88 841.325 297.88L841.142 345.863H779.38C771.694 345.863 765.472 344.302 760.714 341.169C755.956 338.014 752.616 334.015 750.694 329.185C748.773 324.332 748.247 319.286 749.139 314.057C750.054 308.805 752.341 304.032 756.001 299.749C759.684 295.465 764.705 292.367 771.053 290.453C764.831 288.539 760.039 285.475 756.688 281.248C753.359 277.033 751.403 272.351 750.832 267.214C750.283 262.087 750.969 257.143 752.89 252.404C754.812 247.665 757.991 243.746 762.452 240.648C766.936 237.549 772.574 236 779.38 236H841.325L841.142 283.663Z" fill="black"/>
<path d="M921.041 236C926.131 236 930.511 237.344 934.171 240.01C937.854 242.653 940.828 246.15 943.093 250.49C945.346 254.808 946.867 259.592 947.668 264.844C948.457 270.073 948.514 275.313 947.851 280.565C947.176 285.794 945.758 290.578 943.596 294.918C941.457 299.27 938.541 302.756 934.858 305.399C931.198 308.042 926.76 309.363 921.544 309.363H891.669V345.863H849.762V236H921.041ZM891.532 304.305C895.249 304.191 898.349 302.87 900.82 300.341C903.313 297.789 905.234 294.497 906.584 290.453C907.957 286.386 908.803 282.012 909.146 277.33C909.512 272.659 909.398 268.011 908.826 263.386C908.242 258.772 907.225 254.637 905.76 250.992C904.296 247.323 902.432 244.589 900.179 242.79C898.006 240.967 895.478 240.044 892.584 240.01C889.714 239.953 887.186 240.716 884.99 242.288C882.794 243.872 881.696 246.344 881.696 249.716C881.696 252.427 882.657 254.705 884.578 256.551C886.5 258.408 888.81 259.33 891.532 259.33V304.305Z" fill="black"/>
<path d="M955.14 236.182H995.675C995.675 246.002 995.698 255.845 995.767 265.71C995.824 275.552 995.858 285.384 995.858 295.192H998.054C998.169 291.25 999.335 287.947 1001.53 285.304C1003.75 282.638 1006.5 280.736 1009.77 279.608C1013.06 278.492 1016.29 278.446 1019.47 279.471L1019.28 236.182H1060V346.227H1019.47V308.179C1019.47 305.262 1018.66 302.916 1017.09 301.116C1015.5 299.293 1013.54 298.085 1011.23 297.47C1008.91 296.832 1006.56 296.81 1004.18 297.379C1001.81 297.926 999.816 299.088 998.237 300.842C996.647 302.574 995.858 304.921 995.858 307.86V346.227H955.323L955.14 236.182Z" fill="black"/>
<rect width="480" height="96" transform="translate(464 522)" fill="#FF4D13"/>
<path d="M558.487 557.3V582.5H549.127V570.512L542.251 582.5H536.131L529.255 570.512V582.5H519.895V557.3H531.415L539.191 571.7L546.967 557.3H558.487ZM586.227 582.5L584.499 577.964H573.771L572.043 582.5H561.747L572.187 557.3H586.083L596.523 582.5H586.227ZM576.219 571.484H582.051L579.135 563.78L576.219 571.484ZM629.231 566.948C629.231 570.62 627.539 573.644 624.767 575.264L629.231 582.5H618.143L614.651 576.596H609.143V582.5H599.783V557.3H619.583C625.307 557.3 629.231 561.332 629.231 566.948ZM609.143 565.22V568.676H617.783C618.719 568.676 619.871 568.676 619.871 566.948C619.871 565.22 618.719 565.22 617.783 565.22H609.143ZM632.458 569.864C632.458 561.116 637.21 556.94 648.298 556.94C658.378 556.94 663.634 560.468 664.03 568.424H654.454C654.094 566.048 652.258 564.86 648.298 564.86C642.754 564.86 641.818 567.2 641.818 569.864C641.818 572.564 642.79 574.94 648.298 574.94C652.258 574.94 654.094 573.716 654.454 571.304H664.03C663.634 579.296 658.414 582.86 648.298 582.86C637.21 582.86 632.458 578.648 632.458 569.864ZM691.767 557.3H701.127V582.5H691.767V573.86H677.007V582.5H667.647V557.3H677.007V565.94H691.767V557.3ZM705.077 576.02H713.717V582.5H705.077V576.02ZM762.845 564.86C762.845 573.032 750.497 571.772 748.697 574.58H762.485V582.5H734.261V578.18C734.261 568.748 753.485 569.648 753.485 566.12C753.485 565.04 752.585 564.86 749.453 564.86C746.141 564.86 743.981 564.86 743.981 567.2H734.621C734.621 558.596 740.525 556.94 749.093 556.94C757.769 556.94 762.845 558.596 762.845 564.86ZM783.021 574.58H790.221V582.5H766.461V574.58H773.697L773.769 566.408C771.033 568.82 769.089 568.82 766.461 568.82V560.9C770.169 560.9 773.661 560.9 773.661 557.3H783.021V574.58ZM794.908 566.66H823.708V573.86H794.908V566.66ZM856.608 564.86C856.608 573.032 844.26 571.772 842.46 574.58H856.248V582.5H828.024V578.18C828.024 568.748 847.248 569.648 847.248 566.12C847.248 565.04 846.348 564.86 843.216 564.86C839.904 564.86 837.744 564.86 837.744 567.2H828.384C828.384 558.596 834.288 556.94 842.856 556.94C851.532 556.94 856.608 558.596 856.608 564.86ZM884.885 569.9C887.153 571.088 888.449 572.816 888.449 575.3C888.449 581.204 883.373 582.86 874.517 582.86C865.769 582.86 859.865 581.204 859.865 572.96H869.225C869.225 574.94 871.385 574.94 874.877 574.94C878.189 574.94 879.089 574.94 879.089 573.644C879.089 572.06 878.189 572.06 871.277 572.06V567.74C878.189 567.74 879.089 567.74 879.089 566.156C879.089 564.86 878.189 564.86 874.877 564.86C871.385 564.86 869.225 564.86 869.225 566.84H859.865C859.865 558.596 865.769 556.94 874.517 556.94C883.373 556.94 888.449 558.596 888.449 564.5C888.449 566.984 887.153 568.712 884.885 569.9Z" fill="white"/>
<path d="M996.438 556.8V582H989.958V556.8H996.438ZM1031.28 566.052C1031.28 570.156 1029.19 573.18 1025.81 574.512L1030.45 582H1022.82L1018.75 575.268H1008.31V582H1001.83V556.8H1021.63C1027.35 556.8 1031.28 560.436 1031.28 566.052ZM1008.31 562.236V569.832H1019.83C1021.77 569.832 1024.8 569.832 1024.8 566.052C1024.8 562.236 1021.77 562.236 1019.83 562.236H1008.31ZM1042.4 576.564H1061.84V582H1035.92V556.8H1042.4V576.564ZM1096.61 567.204V572.316H1084.98V582H1078.83V572.316H1067.81V567.204H1078.83V557.52H1084.98V567.204H1096.61ZM1118.42 582.36C1107.33 582.36 1102.58 577.752 1102.58 569.364C1102.58 561.012 1107.33 556.44 1118.42 556.44C1129.47 556.44 1134.26 561.048 1134.26 569.364C1134.26 577.716 1129.47 582.36 1118.42 582.36ZM1118.42 576.924C1125.15 576.924 1127.78 574.512 1127.78 569.364C1127.78 564.252 1125.19 561.876 1118.42 561.876C1111.65 561.876 1109.06 564.216 1109.06 569.364C1109.06 574.548 1111.69 576.924 1118.42 576.924ZM1165.13 556.8H1171.61V582H1162.79L1145.62 563.1V582H1139.14V556.8H1147.92L1165.13 575.736V556.8ZM1183.51 576.564H1202.95V582H1177.03V556.8H1183.51V576.564ZM1214.47 556.8V582H1207.99V556.8H1214.47ZM1245.85 556.8H1252.33V582H1243.51L1226.34 563.1V582H1219.86V556.8H1228.64L1245.85 575.736V556.8ZM1284.39 561.948H1264.23V567.06H1284.39V571.74H1264.23V576.852H1284.39V582H1257.75V556.8H1284.39V561.948Z" fill="#FF4D13"/>
<path d="M1447.59 215.774L1433.08 230.306L1432.37 231.013L1433.08 231.719L1447.59 246.226L1439.23 254.586L1424.69 240.078L1423.99 239.372L1423.28 240.079L1408.77 254.586L1400.41 246.226L1414.92 231.719L1415.63 231.013L1414.92 230.306L1400.41 215.774L1408.77 207.414L1423.28 221.921L1423.99 222.628L1424.69 221.922L1439.23 207.414L1447.59 215.774Z" fill="#FF4D13" stroke="#FF4D13" stroke-width="2"/>
<path d="M1414.21 534.256L1419.86 499.068L1496.54 511.381L1490.89 546.569L1482.49 545.219L1481.14 553.622L1472.74 552.273L1471.39 560.676L1462.98 559.327L1461.63 567.73L1453.23 566.38L1452.56 570.582L1460.96 571.931L1459.61 580.334L1468.01 581.683L1466.66 590.086L1475.07 591.436L1473.72 599.839L1482.12 601.188L1476.22 637.951L1399.54 625.638L1405.44 588.875L1413.85 590.224L1415.2 581.821L1423.6 583.171L1424.95 574.768L1433.35 576.117L1434.7 567.714L1443.1 569.064L1443.78 564.862L1435.37 563.513L1436.72 555.11L1428.32 553.76L1429.67 545.357L1421.27 544.008L1422.62 535.605L1414.21 534.256Z" fill="#FF4D13" stroke="black" stroke-width="2"/>
<rect x="1434.23" y="516.997" width="8.5106" height="8.51062" transform="rotate(9.12291 1434.23 516.997)" fill="black"/>
<rect x="1451.03" y="519.696" width="8.5106" height="8.51062" transform="rotate(9.12291 1451.03 519.696)" fill="black"/>
<rect x="1441.08" y="581.668" width="8.5106" height="8.51062" transform="rotate(9.12291 1441.08 581.668)" fill="black"/>
<rect x="1438.38" y="598.474" width="8.5106" height="8.51062" transform="rotate(9.12291 1438.38 598.474)" fill="black"/>
<rect x="1441.28" y="526.75" width="8.5106" height="8.51062" transform="rotate(9.12291 1441.28 526.75)" fill="black"/>
<rect x="1448.33" y="536.502" width="8.5106" height="8.51062" transform="rotate(9.12291 1448.33 536.502)" fill="black"/>
<rect x="1458.08" y="529.448" width="8.5106" height="8.51062" transform="rotate(9.12291 1458.08 529.448)" fill="black"/>
<rect x="1467.84" y="522.395" width="8.5106" height="8.51062" transform="rotate(9.12291 1467.84 522.395)" fill="black"/>
<rect x="1413.14" y="480.146" width="97.9996" height="19.2765" transform="rotate(9.12291 1413.14 480.146)" fill="#FF4D13" stroke="black" stroke-width="2"/>
<rect x="1390.2" y="622.996" width="97.9996" height="19.2765" transform="rotate(9.12291 1390.2 622.996)" fill="#FF4D13" stroke="black" stroke-width="2"/>
<g clip-path="url(#clip0_1985_27071)">
<path d="M356.769 219.869C372.169 163.112 338.642 104.618 281.885 89.219C225.128 73.8199 166.634 107.347 151.235 164.103C135.836 220.86 169.363 279.354 226.12 294.753C282.876 310.152 341.37 276.626 356.769 219.869Z" fill="#FF4D13" stroke="black" stroke-width="0.25" stroke-miterlimit="10"/>
<path d="M217.976 179.938C223.349 189.81 224.544 199.563 220.563 201.752C216.622 203.902 209.019 197.652 203.645 187.78C198.271 177.908 197.077 168.156 201.058 165.966C204.999 163.817 212.602 170.066 217.976 179.938Z" fill="black"/>
<path d="M277.685 147.377C283.059 157.249 284.254 167.001 280.273 169.191C276.292 171.38 268.729 165.091 263.355 155.219C257.981 145.347 256.787 135.594 260.768 133.405C264.709 131.255 272.312 137.505 277.685 147.377Z" fill="black"/>
<path d="M315.302 177.908C321.393 204.658 309.331 233.279 284.054 247.092C258.936 260.785 228.604 255.611 209.377 236.344" stroke="black" stroke-width="1.25" stroke-miterlimit="10"/>
</g>
<defs>
<clipPath id="clip0_1985_27071">
<rect width="214" height="214" fill="white" transform="translate(147 85)"/>
</clipPath>
</defs>
</svg>
